<?xml version="1.0" encoding="utf-8"?>
<!-- Generator: Adobe Illustrator 19.0.0, SVG Export Plug-In . SVG Version: 6.00 Build 0)  -->
<svg version="1.1" id="Layer_1" xmlns="http://www.w3.org/2000/svg" xmlns:xlink="http://www.w3.org/1999/xlink" x="0px" y="0px"
	 viewBox="0 0 960 560" style="enable-background:new 0 0 960 560;" xml:space="preserve">
<style type="text/css">
	.st0{fill:#635144;}
	.st1{fill:#AA6933;}
	.st2{fill:#D38240;}
	.st3{fill:#42362E;}
	.st4{fill:#E8B128;}
	.st5{fill:#897062;}
	.st6{fill:#EED2A0;}
	.st7{fill:#7C4028;}
	.st8{opacity:0.3;fill:#E8B128;}
</style>
<g id="XMLID_45_">
	
		<rect id="XMLID_43_" x="495.5" y="190.3" transform="matrix(0.9942 -0.1073 0.1073 0.9942 -17.6152 54.5529)" class="st0" width="5" height="1.2"/>
	
		<rect id="XMLID_42_" x="493.4" y="180.6" transform="matrix(0.9942 -0.1073 0.1073 0.9942 -16.5798 54.2684)" class="st0" width="5" height="1.2"/>
	
		<rect id="XMLID_41_" x="492.4" y="170.7" transform="matrix(0.9942 -0.1073 0.1073 0.9942 -15.5254 54.0949)" class="st0" width="5" height="1.2"/>
	<path id="XMLID_40_" class="st1" d="M569.6,322.4c-9.8-6-12.3-18-9.6-23.6c2.7-5.7,11.6-15.3,3.6-31.9c-8.6-17.7-38.2-19-38.2-19
		s-28.7,7.7-33.3,26.7c-4.3,17.9,6.4,25.5,10.3,30.4c3.9,5,4,17.2-4.3,25.1c-6.4,6.1-19.6,13-13.6,45.3
		c6.8,36.5,57.8,29.3,57.8,29.3s51.3-3.9,50.2-41C591.5,330.9,577.1,327,569.6,322.4z"/>
	<path id="XMLID_39_" class="st2" d="M557.9,323.7c-9.3-6-11.7-18-9.2-23.7c2.5-5.6,10.9-15.3,3.2-31.9
		c-8.2-17.7-36.2-19.2-36.2-19.2s-27,7.5-31.3,26.5c-4,17.9,6.2,25.5,9.9,30.5c3.7,5,3.9,17.2-3.9,25.1c-6,6-18.4,12.8-12.5,45.1
		c6.7,36.5,54.7,29.7,54.7,29.7s48.4-3.6,47.1-40.7C578.6,332.3,565,328.3,557.9,323.7z"/>
	<polygon id="XMLID_38_" class="st3" points="533.4,305.1 513.4,307.3 505.1,192.7 517.4,191.4 	"/>
	<polygon id="XMLID_37_" class="st0" points="530.7,305.4 510.6,307.5 502.4,193 514.7,191.7 	"/>
	<g id="XMLID_90_">
		
			<ellipse id="XMLID_36_" transform="matrix(0.9942 -0.1073 0.1073 0.9942 -31.959 58.1197)" class="st4" cx="524" cy="326" rx="15.9" ry="17.2"/>
		
			<ellipse id="XMLID_35_" transform="matrix(0.9942 -0.1073 0.1073 0.9942 -31.9626 58.1131)" class="st3" cx="524" cy="326" rx="12.6" ry="13.9"/>
	</g>
	<polygon id="XMLID_34_" class="st3" points="543.6,360.6 516.9,363.5 514.6,361.3 539.4,355.6 542.6,356.7 	"/>
	<polygon id="XMLID_33_" class="st0" points="539.7,358.3 514.6,361.3 514.2,358.3 539.4,355.6 	"/>
	<polygon id="XMLID_32_" class="st2" points="511.8,156.8 497.3,158.5 495.3,165.8 502.1,202.5 517.4,200.8 515.4,164 	"/>
	<polygon id="XMLID_31_" class="st1" points="515,156.5 511.8,156.8 515.4,164 517.4,200.8 519.8,200.6 518.1,163.3 	"/>
	
		<rect id="XMLID_30_" x="518.3" y="187.9" transform="matrix(0.9942 -0.1073 0.1073 0.9942 -17.2173 56.9751)" class="st0" width="5" height="1.2"/>
	
		<rect id="XMLID_29_" x="517.9" y="177.6" transform="matrix(0.9942 -0.1073 0.1073 0.9942 -16.1239 56.8763)" class="st0" width="5" height="1.2"/>
	
		<rect id="XMLID_28_" x="516.8" y="167.5" transform="matrix(0.9942 -0.1073 0.1073 0.9942 -15.0366 56.6903)" class="st0" width="5" height="1.2"/>
	<path id="XMLID_27_" class="st3" d="M526,189.5c0.1,1.1-0.7,2-1.7,2.1l0,0c-1.1,0.1-2-0.7-2.1-1.7l-0.3-3.2c-0.1-1.1,0.7-2,1.7-2.1
		l0,0c1.1-0.1,2,0.7,2.1,1.7L526,189.5z"/>
	<path id="XMLID_26_" class="st3" d="M525.7,179.3c0.1,1.1-0.7,2-1.7,2.1l0,0c-1.1,0.1-2-0.7-2.1-1.7l-0.3-3.2
		c-0.1-1.1,0.7-2,1.7-2.1l0,0c1.1-0.1,2,0.7,2.1,1.7L525.7,179.3z"/>
	<path id="XMLID_25_" class="st3" d="M524.6,169.1c0.1,1.1-0.7,2-1.7,2.1l0,0c-1.1,0.1-2-0.7-2.1-1.7l-0.3-3.2
		c-0.1-1.1,0.7-2,1.7-2.1l0,0c1.1-0.1,2,0.7,2.1,1.7L524.6,169.1z"/>
	<path id="XMLID_24_" class="st3" d="M497.7,192.6c0.1,1.1-0.7,2-1.7,2.1l0,0c-1.1,0.1-2-0.7-2.1-1.7l-0.3-3.2
		c-0.1-1.1,0.7-2,1.7-2.1l0,0c1.1-0.1,2,0.7,2.1,1.7L497.7,192.6z"/>
	<path id="XMLID_23_" class="st3" d="M496.4,182.4c0.1,1.1-0.7,2-1.7,2.1l0,0c-1.1,0.1-2-0.7-2.1-1.7l-0.3-3.2
		c-0.1-1.1,0.7-2,1.7-2.1l0,0c1.1-0.1,2,0.7,2.1,1.7L496.4,182.4z"/>
	<path id="XMLID_22_" class="st3" d="M494.4,172.4c0.1,1.1-0.7,2-1.7,2.1l0,0c-1.1,0.1-2-0.7-2.1-1.7l-0.3-3.2
		c-0.1-1.1,0.7-2,1.7-2.1l0,0c1.1-0.1,2,0.7,2.1,1.7L494.4,172.4z"/>
	<path id="XMLID_21_" class="st5" d="M528.8,291.9c0,0.4-0.3,0.8-0.7,0.8l-16.7,1.8c-0.4,0-0.8-0.3-0.8-0.7l0,0
		c0-0.4,0.3-0.8,0.7-0.8l16.7-1.8C528.4,291.2,528.8,291.5,528.8,291.9L528.8,291.9z"/>
	<path id="XMLID_20_" class="st5" d="M526.2,272.5c0,0.4-0.2,0.8-0.6,0.8l-15.1,1.6c-0.4,0-0.7-0.3-0.7-0.7l0,0
		c0-0.4,0.2-0.8,0.6-0.8l15.1-1.6C525.8,271.8,526.2,272.1,526.2,272.5L526.2,272.5z"/>
	<path id="XMLID_19_" class="st5" d="M523.2,253.2c0,0.4-0.2,0.8-0.5,0.8l-14.2,1.5c-0.3,0-0.7-0.3-0.7-0.7l0,0
		c0-0.4,0.2-0.8,0.5-0.8l14.2-1.5C522.8,252.5,523.2,252.8,523.2,253.2L523.2,253.2z"/>
	<path id="XMLID_18_" class="st5" d="M520.6,233.9c0,0.4-0.2,0.8-0.5,0.8l-13.7,1.5c-0.3,0-0.6-0.3-0.7-0.7l0,0
		c0-0.4,0.2-0.8,0.5-0.8l13.7-1.5C520.2,233.2,520.5,233.5,520.6,233.9L520.6,233.9z"/>
	<path id="XMLID_17_" class="st5" d="M517.7,214.6c0,0.4-0.2,0.8-0.5,0.8l-12.5,1.4c-0.3,0-0.6-0.3-0.6-0.7l0,0
		c0-0.4,0.2-0.8,0.5-0.8l12.5-1.4C517.3,213.9,517.6,214.2,517.7,214.6L517.7,214.6z"/>
	<g id="XMLID_70_">
		<path id="XMLID_16_" class="st6" d="M517.7,361.6C517.7,361.6,517.7,361.6,517.7,361.6c-0.3,0-0.5-0.2-0.5-0.4L502.4,191
			c0-0.2,0.2-0.5,0.4-0.5c0.2,0,0.5,0.2,0.5,0.4l14.8,170.2C518.1,361.4,517.9,361.6,517.7,361.6z"/>
	</g>
	<g id="XMLID_68_">
		<path id="XMLID_15_" class="st6" d="M522.2,360.4C522.2,360.4,522.2,360.4,522.2,360.4c-0.2,0-0.5-0.2-0.5-0.4l-17.6-176.7
			c0-0.2,0.2-0.5,0.4-0.5c0,0,0,0,0,0c0.2,0,0.5,0.2,0.5,0.4l17.6,176.7C522.7,360.2,522.5,360.4,522.2,360.4z"/>
	</g>
	<g id="XMLID_66_">
		<path id="XMLID_14_" class="st6" d="M526,360C526,360,526,360,526,360c-0.2,0-0.5-0.2-0.5-0.4l-18.9-183.4c0-0.2,0.2-0.5,0.4-0.5
			c0,0,0,0,0,0c0.2,0,0.5,0.2,0.5,0.4l18.9,183.4C526.4,359.8,526.2,360,526,360z"/>
	</g>
	<g id="XMLID_64_">
		<path id="XMLID_13_" class="st6" d="M530.4,359.3c-0.2,0-0.5-0.1-0.5-0.4l-21-188.8c0-0.2,0.1-0.5,0.4-0.5c0,0,0,0,0,0
			c0.2,0,0.5,0.1,0.5,0.4l21,188.8C530.8,359.1,530.6,359.3,530.4,359.3C530.4,359.3,530.4,359.3,530.4,359.3z"/>
	</g>
	<g id="XMLID_62_">
		<path id="XMLID_12_" class="st6" d="M534.6,358.9c-0.2,0-0.5-0.1-0.5-0.4l-22.4-193.1c0-0.2,0.1-0.5,0.4-0.5c0,0,0,0,0,0
			c0.2,0,0.5,0.1,0.5,0.4L535,358.4C535,358.6,534.8,358.8,534.6,358.9C534.6,358.9,534.6,358.9,534.6,358.9z"/>
	</g>
	<g id="XMLID_59_">
		<circle id="XMLID_11_" class="st7" cx="503.1" cy="191.2" r="1.3"/>
		<circle id="XMLID_10_" class="st4" cx="502.9" cy="191.2" r="0.8"/>
	</g>
	<g id="XMLID_56_">
		<circle id="XMLID_9_" class="st7" cx="504.8" cy="183.3" r="1.3"/>
		<circle id="XMLID_8_" class="st4" cx="504.6" cy="183.3" r="0.8"/>
	</g>
	<g id="XMLID_53_">
		<circle id="XMLID_7_" class="st7" cx="507" cy="175.8" r="1.3"/>
		<circle id="XMLID_6_" class="st4" cx="506.8" cy="175.8" r="0.8"/>
	</g>
	<g id="XMLID_50_">
		<circle id="XMLID_5_" class="st7" cx="509.3" cy="169.8" r="1.3"/>
		<circle id="XMLID_4_" class="st4" cx="509" cy="169.8" r="0.8"/>
	</g>
	<g id="XMLID_47_">
		<circle id="XMLID_3_" class="st7" cx="512.2" cy="165.4" r="1.3"/>
		<circle id="XMLID_2_" class="st4" cx="512" cy="165.3" r="0.8"/>
	</g>
	<path id="XMLID_1_" class="st8" d="M538.1,383.1c-3.1-7.4-19.4-5.7-25.8-6.8c-9.5-1.7-13.2-7.1-16.7-15.4c-1.8-4.3,1.1-9,2.4-12.6
		c1.1-3,6.1-5.9,4.8-9.5c-0.7-1.8-2.2-2.9-3-3.3c-7.3-3-15.9,8.2-18,15.4c-2.2,7.3-2.2,21,0.8,28.1c5.9,14.1,25.6,21,39.7,21.4
		C535.6,400.8,542.1,392.4,538.1,383.1z"/>
</g>
</svg>
