<?xml version="1.0" encoding="utf-8"?>
<!-- Generator: Adobe Illustrator 19.0.0, SVG Export Plug-In . SVG Version: 6.00 Build 0)  -->
<svg version="1.1" id="Layer_1" xmlns="http://www.w3.org/2000/svg" xmlns:xlink="http://www.w3.org/1999/xlink" x="0px" y="0px"
	 viewBox="0 0 960 560" style="enable-background:new 0 0 960 560;" xml:space="preserve">
<style type="text/css">
	.st0{fill:#241917;}
	.st1{fill:#FFFFFF;}
	.st2{fill:#1A1714;}
</style>
<g id="XMLID_50_">
	<g id="XMLID_69_">
		<polygon id="XMLID_33_" class="st0" points="336.2,419.4 342.2,427.9 299.6,458.6 293.6,450.1 		"/>
		<path id="XMLID_32_" class="st1" d="M343,429.1l-42.6,30.7l3,4.3l54.7-39.2l-6-8.5l-10.8,7.6l2.1,3
			C344,427.6,343.8,428.6,343,429.1z"/>
		<path id="XMLID_31_" class="st1" d="M335.3,418.1l-42.6,30.7l0.1,0.1L335.3,418.1c0.8-0.4,1.8-0.3,2.3,0.3l2.1,3l10.8-7.6l-6-8.5
			l-10.8,7.6l2.1,3C336.3,416.6,336,417.6,335.3,418.1z"/>
		<path id="XMLID_30_" class="st1" d="M285,437.9l42.5-30.6c0.8-0.5,1.7-0.4,2.2,0.2l2.1,3l10.8-7.6l-6-8.5L282,433.6L285,437.9z"/>
		<polygon id="XMLID_29_" class="st0" points="328.4,408.4 334.4,416.9 291.9,447.6 285.9,439.1 		"/>
	</g>
	<g id="XMLID_63_">
		<polygon id="XMLID_28_" class="st0" points="316.9,382.5 322.9,391 280.3,421.7 274.3,413.2 		"/>
		<path id="XMLID_27_" class="st1" d="M323.7,392.2l-42.6,30.7l3,4.3l54.7-39.2l-6-8.5l-10.8,7.6l2.1,3
			C324.7,390.7,324.5,391.7,323.7,392.2z"/>
		<path id="XMLID_26_" class="st1" d="M316,381.2l-42.6,30.7l0.1,0.1L316,381.2c0.8-0.4,1.8-0.4,2.3,0.3l2.1,3l10.8-7.6l-6-8.5
			l-10.8,7.6l2.1,3C317,379.7,316.8,380.7,316,381.2z"/>
		<path id="XMLID_25_" class="st1" d="M265.8,401l42.5-30.6c0.8-0.5,1.7-0.4,2.2,0.2l2.1,3l10.8-7.6l-6-8.5l-54.7,39.2L265.8,401z"
			/>
		<polygon id="XMLID_24_" class="st0" points="309.2,371.5 315.2,380.1 272.6,410.7 266.6,402.2 		"/>
	</g>
	<g id="XMLID_57_">
		<polygon id="XMLID_23_" class="st0" points="288.6,353.8 294.6,362.3 252,393 246,384.4 		"/>
		<path id="XMLID_22_" class="st1" d="M295.4,363.5l-42.6,30.7l3,4.3l54.7-39.2l-6-8.5l-10.8,7.6l2.1,3
			C296.4,362,296.2,362.9,295.4,363.5z"/>
		<path id="XMLID_21_" class="st1" d="M287.7,352.5l-42.6,30.7l0.1,0.1L287.7,352.5c0.8-0.4,1.8-0.3,2.3,0.3l2.1,3l10.8-7.6l-6-8.5
			l-10.8,7.6l2.1,3C288.7,351,288.4,352,287.7,352.5z"/>
		<path id="XMLID_20_" class="st1" d="M237.5,372.3l42.5-30.6c0.8-0.5,1.7-0.4,2.2,0.2l2.1,3l10.8-7.6l-6-8.5L234.4,368L237.5,372.3
			z"/>
		<polygon id="XMLID_19_" class="st0" points="280.8,342.8 286.8,351.3 244.3,382 238.3,373.4 		"/>
	</g>
	<g id="XMLID_51_">
		<polygon id="XMLID_18_" class="st0" points="269.3,316.9 275.3,325.4 232.7,356.1 226.8,347.6 		"/>
		<path id="XMLID_17_" class="st1" d="M276.2,326.6l-42.6,30.7l3,4.3l54.7-39.2l-6-8.5l-10.8,7.6l2.1,3
			C277.2,325.1,276.9,326.1,276.2,326.6z"/>
		<path id="XMLID_16_" class="st1" d="M268.4,315.6l-42.6,30.7l0.1,0.1L268.4,315.6c0.8-0.4,1.8-0.4,2.3,0.3l2.1,3l10.8-7.6l-6-8.5
			l-10.8,7.6l2.1,3C269.4,314.1,269.2,315.1,268.4,315.6z"/>
		<path id="XMLID_15_" class="st1" d="M218.2,335.4l42.5-30.6c0.8-0.5,1.7-0.4,2.2,0.2l2.1,3l10.8-7.6l-6-8.5l-54.7,39.2
			L218.2,335.4z"/>
		<polygon id="XMLID_14_" class="st0" points="261.6,305.9 267.6,314.4 225,345.1 219,336.6 		"/>
	</g>
</g>
<path id="XMLID_13_" class="st2" d="M642.6,505.3l4.3-0.8l3,18.2c0,0-2.1,10.6-10,9.4c-8-1.2,0.6-9.2,3.2-9.7c2.7-0.6,5-0.3,5-0.3
	L642.6,505.3z"/>
<path id="XMLID_12_" class="st2" d="M668.3,58.7l-9.9,16.4c0,0-3.8-6-9.3-5.7c-5.4,0.3-5.3,6.2-0.2,8.4c5.1,2.2,9.8,0.3,9.8,0.3
	l10.1-13.3l7.7,7.8l-7.4,9.9c0,0-12.2-2-11.2,4c0.9,6,8,4.1,10.4,2.6c2.5-1.5,3.1-5.2,3.1-5.2l11.5-11.8L668.3,58.7z"/>
<path id="XMLID_43_" class="st2" d="M395,365.2c-0.4-1.1-6.6-4-6.6-4l-5.4,1.5c0,0-3.6-3.5-3.6-3.6c2-3.5,3-7.9,3-7.9l-5.3-7.6
	c0,0-0.6-0.5-1-0.6c-0.5-0.1-3.4,0.3-3.7,0.4c-0.6,0.2-1.3,0.4-1.9,0.7c-1.6,0.8-5.4,6.2-5,6.7c0.5,0.5,9.1,7.4,10.8,8.6
	c-0.4,1.2-1.4,3.9-1.6,4.6c-0.7,2.7,2.7,14.8,4.8,14.9c1.5,0.1,8.3-2.1,11.3-3.5c1.6,2.9,2.9,5.7,3.2,6.8c0.5,2.2-2,2-5.9,1.8
	c-3.9-0.1-4.3,3.8-4,5.5c0.3,1.7,5.5,1.9,8.1,0.3c2.6-1.7,4.3-6.7,4.3-8c0-1-1.8-4.8-3.6-7.5c0,0,0,0,0,0
	C393.8,373.8,395.8,367.5,395,365.2z M369,350.3c0.1-0.7,2.7-5.3,6.3-5.3c1.9,2.2,3.9,5.7,3.9,5.7l-2.4,7.1
	C376.9,357.8,368.9,350.9,369,350.3z M380.1,376.4c-1.7-0.3-3.5-13.1-1.9-15.6c0.4,0.3,2.7,2,3.6,2.6l-1.5,0.8l0,2.9l1.7,4.2
	l1.6-1.4c0,0-0.7-3.2,0.4-4c0.9,1.1,1.8,2.1,2.5,2.7c0.8,0.7,2.1,2.8,3.4,5C387.2,375.2,381.3,376.6,380.1,376.4z M391.6,372.5
	c-1.5-1.9-4.3-4.9-6.4-7.2c1.4-0.3,3.4-0.2,4.3,0.1c1.1,0.4,3.1,4.3,2.6,6.2C392.1,372,391.9,372.3,391.6,372.5z"/>
<g id="XMLID_38_">
	<polygon id="XMLID_7_" class="st2" points="422.8,21.4 420.6,25.1 436.5,36.9 437.1,32.1 	"/>
	<polygon id="XMLID_6_" class="st2" points="414,30.2 416.2,29.7 433.1,41.4 431.7,44.7 	"/>
	<polygon id="XMLID_5_" class="st2" points="433,17.4 413.2,38.9 414.8,41.4 433.8,22 	"/>
	<polygon id="XMLID_4_" class="st2" points="439.4,25.4 437.3,24.8 420.5,45.4 422.3,46.5 	"/>
</g>
<path id="XMLID_3_" class="st2" d="M621.8,236.4l12.8-9c0,0,2.4,4.7,4.6,6.6c2.2,1.9,5.3,0.5,5.5-2.3c0.2-2.8-1.5-7-4.3-8.1
	c-2.8-1.2-6.3,1.5-6.3,1.5l-11,7.1l-3.4-7.8l-5.8,2.8L621.8,236.4z"/>
<path id="XMLID_2_" class="st2" d="M703.8,150c0,0,6.4-1.7,7.9-4.5c1.4-2.8-1.5-5.9-1.5-5.9s-6.8,1.5-7.9,3.7
	c-1.1,2.1-0.9,6.3-0.9,6.3l2.4,9.8l-12.5,4.3l-2.5-9.2c0,0,5.6-1.6,5.7-3.6c0.1-2-0.3-4.4-2.2-4.8c-1.9-0.4-6.4,0.2-6.9,1.9
	c-0.5,1.6-0.1,7.1-0.1,7.1l4.8,15.1l16.8-5.5L703.8,150z"/>
<path id="XMLID_1_" class="st2" d="M394.8,202.9l-2.4,19.8c0,0-8-4.2-11.2-0.7s2.6,11.2,8.9,10.6c5.1-0.4,4.4-7.4,4.4-7.4l2.9-17.4
	l8.8,6.2l3.4-10L394.8,202.9z"/>
</svg>
