<?xml version="1.0" encoding="utf-8"?>
<!-- Generator: Adobe Illustrator 19.0.0, SVG Export Plug-In . SVG Version: 6.00 Build 0)  -->
<svg version="1.1" id="Layer_1" xmlns="http://www.w3.org/2000/svg" xmlns:xlink="http://www.w3.org/1999/xlink" x="0px" y="0px"
	 viewBox="0 0 960 560" style="enable-background:new 0 0 960 560;" xml:space="preserve">
<style type="text/css">
	.st0{fill:#635144;}
	.st1{fill:#AA6933;}
	.st2{fill:#D38240;}
	.st3{fill:#42362E;}
	.st4{fill:#E8B128;}
	.st5{fill:#897062;}
	.st6{fill:#EED2A0;}
	.st7{fill:#7C4028;}
	.st8{opacity:0.3;fill:#E8B128;}
</style>
<g id="XMLID_45_">
	
		<rect id="XMLID_43_" x="611" y="109.3" transform="matrix(0.7789 0.6271 -0.6271 0.7789 205.5016 -361.9526)" class="st0" width="10.2" height="2.4"/>
	
		<rect id="XMLID_42_" x="622.1" y="92" transform="matrix(0.7789 0.6271 -0.6271 0.7789 197.1377 -372.7063)" class="st0" width="10.2" height="2.4"/>
	
		<rect id="XMLID_41_" x="634.8" y="76.2" transform="matrix(0.7789 0.6271 -0.6271 0.7789 190.0135 -384.2275)" class="st0" width="10.2" height="2.4"/>
	<path id="XMLID_40_" class="st1" d="M529.2,404.8c-5.6-22.8,8.3-43.9,20.4-48.1c12.1-4.3,39.1-5.4,51.5-41.1
		c13.1-38.1-27.8-83-27.8-83s-52.7-30.5-87-9.5c-32.3,19.7-27.6,46.3-29.2,59.1c-1.6,12.8-19.2,30.8-42.7,30.2
		c-18-0.4-47.2-9.6-85.3,45.9c-43.1,62.8,41.3,126.3,41.3,126.3s80.1,68.8,132.2,13.4C548.7,448.9,533.5,422.3,529.2,404.8z"/>
	<path id="XMLID_39_" class="st2" d="M510.4,389.7c-4.7-22.2,9.2-43.1,21-47.6c11.8-4.5,37.9-6.4,50.8-41.6
		c13.8-37.6-24.6-80.4-24.6-80.4s-50-28.3-83.8-6.9c-31.7,20.1-27.9,46-29.8,58.5c-1.9,12.5-19.4,30.6-42,30.7
		c-17.4,0.1-45.3-8.1-83.6,47.3c-43.3,62.6,36.3,122.4,36.3,122.4s75.4,65.1,127.3,9.4C528,432.2,514.1,406.7,510.4,389.7z"/>
	<polygon id="XMLID_38_" class="st3" points="501.9,327.3 469.7,301.3 623.8,123.3 643.6,139.2 	"/>
	<polygon id="XMLID_37_" class="st0" points="497.5,323.7 465.3,297.8 619.4,119.8 639.2,135.7 	"/>
	<g id="XMLID_90_">
		
			<ellipse id="XMLID_36_" transform="matrix(0.7789 0.6271 -0.6271 0.7789 316.9721 -211.1505)" class="st4" cx="458" cy="344" rx="32.7" ry="35.2"/>
		
			<ellipse id="XMLID_35_" transform="matrix(0.7789 0.6271 -0.6271 0.7789 316.9024 -211.0765)" class="st3" cx="457.8" cy="343.9" rx="25.9" ry="28.5"/>
	</g>
	<polygon id="XMLID_34_" class="st3" points="436.1,422.5 393.2,388 393.1,381.4 437.3,409.1 440.4,415.5 	"/>
	<polygon id="XMLID_33_" class="st0" points="433.8,413.5 393.1,381.4 396.9,376.6 437.3,409.1 	"/>
	<polygon id="XMLID_32_" class="st2" points="685.5,81 662.1,62.4 648.6,70.1 605.2,133 629.9,152.9 680.3,96.6 	"/>
	<polygon id="XMLID_31_" class="st1" points="690.7,85.1 685.5,81 680.3,96.6 629.9,152.9 633.6,155.9 685.2,99.6 	"/>
	
		<rect id="XMLID_30_" x="647.6" y="138.7" transform="matrix(0.7789 0.6271 -0.6271 0.7789 232.0877 -378.4006)" class="st0" width="10.2" height="2.4"/>
	
		<rect id="XMLID_29_" x="661.8" y="123.2" transform="matrix(0.7789 0.6271 -0.6271 0.7789 225.4641 -390.7042)" class="st0" width="10.2" height="2.4"/>
	
		<rect id="XMLID_28_" x="674.9" y="106.9" transform="matrix(0.7789 0.6271 -0.6271 0.7789 218.1344 -402.5756)" class="st0" width="10.2" height="2.4"/>
	<path id="XMLID_27_" class="st3" d="M658.7,149c-1.4,1.7-3.9,2-5.6,0.6l0,0c-1.7-1.4-2-3.9-0.6-5.6l4.1-5.2c1.4-1.7,3.9-2,5.6-0.6
		l0,0c1.7,1.4,2,3.9,0.6,5.6L658.7,149z"/>
	<path id="XMLID_26_" class="st3" d="M673.1,133.7c-1.4,1.7-3.9,2-5.6,0.6l0,0c-1.7-1.4-2-3.9-0.6-5.6l4.1-5.2
		c1.4-1.7,3.9-2,5.6-0.6l0,0c1.7,1.4,2,3.9,0.6,5.6L673.1,133.7z"/>
	<path id="XMLID_25_" class="st3" d="M686.3,117.4c-1.4,1.7-3.9,2-5.6,0.6l0,0c-1.7-1.4-2-3.9-0.6-5.6l4.1-5.2
		c1.4-1.7,3.9-2,5.6-0.6l0,0c1.7,1.4,2,3.9,0.6,5.6L686.3,117.4z"/>
	<path id="XMLID_24_" class="st3" d="M613.2,112.4c-1.4,1.7-3.9,2-5.6,0.6l0,0c-1.7-1.4-2-3.9-0.6-5.6l4.1-5.2
		c1.4-1.7,3.9-2,5.6-0.6l0,0c1.7,1.4,2,3.9,0.6,5.6L613.2,112.4z"/>
	<path id="XMLID_23_" class="st3" d="M626.1,95.8c-1.4,1.7-3.9,2-5.6,0.6l0,0c-1.7-1.4-2-3.9-0.6-5.6l4.1-5.2c1.4-1.7,3.9-2,5.6-0.6
		l0,0c1.7,1.4,2,3.9,0.6,5.6L626.1,95.8z"/>
	<path id="XMLID_22_" class="st3" d="M637.8,78.3c-1.4,1.7-3.9,2-5.6,0.6l0,0c-1.7-1.4-2-3.9-0.6-5.6l4.1-5.2c1.4-1.7,3.9-2,5.6-0.6
		l0,0c1.7,1.4,2,3.9,0.6,5.6L637.8,78.3z"/>
	<path id="XMLID_21_" class="st5" d="M514.4,301.4c-0.5,0.7-1.5,0.8-2.1,0.2L485.3,280c-0.7-0.5-0.8-1.5-0.2-2.1l0,0
		c0.5-0.7,1.5-0.8,2.1-0.2l26.9,21.7C514.8,299.8,514.9,300.8,514.4,301.4L514.4,301.4z"/>
	<path id="XMLID_20_" class="st5" d="M538.6,269.6c-0.5,0.7-1.4,0.8-2,0.3l-24.2-19.5c-0.6-0.5-0.6-1.4-0.1-2l0,0
		c0.5-0.7,1.4-0.8,2-0.3l24.2,19.5C539.1,268.1,539.2,269,538.6,269.6L538.6,269.6z"/>
	<path id="XMLID_19_" class="st5" d="M562.2,237.3c-0.5,0.7-1.4,0.8-2,0.4l-22.9-18.4c-0.6-0.4-0.6-1.3-0.1-2l0,0
		c0.5-0.7,1.4-0.8,2-0.4l22.9,18.4C562.7,235.8,562.8,236.6,562.2,237.3L562.2,237.3z"/>
	<path id="XMLID_18_" class="st5" d="M586.4,205.5c-0.5,0.7-1.4,0.8-1.9,0.4l-22.1-17.8c-0.5-0.4-0.5-1.3,0-2l0,0
		c0.5-0.7,1.4-0.8,1.9-0.4l22.1,17.8C587,203.9,587,204.8,586.4,205.5L586.4,205.5z"/>
	<path id="XMLID_17_" class="st5" d="M610.2,173.3c-0.5,0.7-1.4,0.9-1.8,0.5l-20.1-16.2c-0.5-0.4-0.5-1.2,0.1-1.9l0,0
		c0.5-0.7,1.4-0.9,1.8-0.5l20.1,16.2C610.8,171.8,610.8,172.6,610.2,173.3L610.2,173.3z"/>
	<g id="XMLID_70_">
		<path id="XMLID_16_" class="st6" d="M397.1,386.4C397.1,386.4,397.1,386.4,397.1,386.4c-0.4-0.3-0.5-0.9-0.1-1.3l225.3-268.2
			c0.3-0.4,0.9-0.4,1.3-0.1c0.4,0.3,0.4,0.9,0.1,1.3L398.4,386.3C398.1,386.6,397.5,386.7,397.1,386.4z"/>
	</g>
	<g id="XMLID_68_">
		<path id="XMLID_15_" class="st6" d="M405.4,391.3C405.4,391.3,405.4,391.3,405.4,391.3c-0.4-0.3-0.5-0.9-0.1-1.3L636,108.3
			c0.3-0.4,0.9-0.4,1.3-0.1c0,0,0,0,0,0c0.4,0.3,0.4,0.9,0.1,1.3L406.7,391.2C406.4,391.6,405.8,391.6,405.4,391.3z"/>
	</g>
	<g id="XMLID_66_">
		<path id="XMLID_14_" class="st6" d="M411.5,396.2C411.5,396.2,411.5,396.2,411.5,396.2c-0.4-0.3-0.5-0.9-0.1-1.3l238.5-293.3
			c0.3-0.4,0.9-0.4,1.3-0.1c0,0,0,0,0,0c0.4,0.3,0.5,0.9,0.1,1.3L412.8,396C412.4,396.4,411.9,396.5,411.5,396.2z"/>
	</g>
	<g id="XMLID_64_">
		<path id="XMLID_13_" class="st6" d="M418.9,401.5c-0.4-0.3-0.5-0.9-0.1-1.3L661.9,96c0.3-0.4,0.9-0.5,1.3-0.1c0,0,0,0,0,0
			c0.4,0.3,0.5,0.9,0.1,1.3L420.2,401.4C419.8,401.8,419.3,401.9,418.9,401.5C418.9,401.5,418.9,401.5,418.9,401.5z"/>
	</g>
	<g id="XMLID_62_">
		<path id="XMLID_12_" class="st6" d="M425.6,407c-0.4-0.3-0.5-0.9-0.1-1.3L673,93.2c0.3-0.4,0.9-0.5,1.3-0.1c0,0,0,0,0,0
			c0.4,0.3,0.5,0.9,0.1,1.3L426.9,406.8C426.6,407.2,426,407.3,425.6,407C425.6,407,425.6,407,425.6,407z"/>
	</g>
	<g id="XMLID_59_">
		<circle id="XMLID_11_" class="st7" cx="623" cy="118.3" r="2.7"/>
		<circle id="XMLID_10_" class="st4" cx="622.7" cy="117.9" r="1.6"/>
	</g>
	<g id="XMLID_56_">
		<circle id="XMLID_9_" class="st7" cx="637" cy="109.3" r="2.7"/>
		<circle id="XMLID_8_" class="st4" cx="636.7" cy="108.9" r="1.6"/>
	</g>
	<g id="XMLID_53_">
		<circle id="XMLID_7_" class="st7" cx="651" cy="101.6" r="2.7"/>
		<circle id="XMLID_6_" class="st4" cx="650.7" cy="101.3" r="1.6"/>
	</g>
	<g id="XMLID_50_">
		<circle id="XMLID_5_" class="st7" cx="663.1" cy="96.1" r="2.7"/>
		<circle id="XMLID_4_" class="st4" cx="662.8" cy="95.7" r="1.6"/>
	</g>
	<g id="XMLID_47_">
		<circle id="XMLID_3_" class="st7" cx="673.8" cy="94" r="2.7"/>
		<circle id="XMLID_2_" class="st4" cx="673.4" cy="93.6" r="1.6"/>
	</g>
	<path id="XMLID_1_" class="st8" d="M395.6,447.2c6.1-15.2-19.9-36.3-27.5-47.3c-11.3-16.3-8.7-29.4-1.8-46.5
		c3.6-8.8,14.7-11.4,21.8-14.7c6-2.7,17.5,0.3,20.7-6.8c1.6-3.6,1-7.4,0.3-9.1c-6.1-14.9-34.9-11.1-48.4-3.9
		c-13.8,7.5-33.5,27.2-39.6,41.9c-12,29,6.6,67.6,26.4,88.6C366.2,469.2,387.8,466.4,395.6,447.2z"/>
</g>
</svg>
