<svg width="29" height="29" viewBox="0 0 29 29" fill="none" xmlns="http://www.w3.org/2000/svg">
<path d="M14.5 29C22.5081 29 29 22.5081 29 14.5C29 6.49187 22.5081 0 14.5 0C6.49187 0 0 6.49187 0 14.5C0 22.5081 6.49187 29 14.5 29Z" fill="#3C5A99"/>
<path d="M15.6272 21.75V15.1457H17.8531L18.1873 12.5601H15.6272V10.9147C15.6272 10.167 15.8339 9.66006 16.9044 9.66006H18.2609V7.35479C18.0259 7.32364 17.2159 7.25283 16.2729 7.25283C14.3046 7.25283 12.9566 8.45362 12.9566 10.6598V12.5629H10.7391V15.1485H12.9566V21.75H15.6272Z" fill="white"/>
</svg>
