<svg width="16" height="16" viewBox="0 0 16 16" fill="none" xmlns="http://www.w3.org/2000/svg">
<path d="M9.54375 0.967289C9.57661 0.844682 9.65679 0.740127 9.76667 0.676581C9.87655 0.613036 10.0072 0.595696 10.1298 0.628367C11.2931 0.941174 12.3538 1.55418 13.2056 2.40596C14.0573 3.25775 14.6703 4.31842 14.9832 5.4817C14.9994 5.54244 15.0035 5.60578 14.9952 5.6681C14.987 5.73042 14.9665 5.79051 14.9351 5.84493C14.9036 5.89935 14.8617 5.94704 14.8118 5.98528C14.7619 6.02351 14.705 6.05154 14.6442 6.06777C14.5835 6.084 14.5202 6.0881 14.4578 6.07985C14.3955 6.0716 14.3354 6.05116 14.281 6.01969C14.2266 5.98821 14.1789 5.94633 14.1407 5.89643C14.1024 5.84653 14.0744 5.78958 14.0582 5.72884C13.789 4.72803 13.2616 3.81551 12.5288 3.08269C11.796 2.34987 10.8835 1.82248 9.88267 1.55336C9.76001 1.52058 9.6554 1.44042 9.59184 1.33051C9.52828 1.22061 9.51098 1.08995 9.54375 0.967289V0.967289ZM9.22173 4.02003C9.78975 4.17274 10.3077 4.47205 10.7236 4.88795C11.1395 5.30386 11.4388 5.82177 11.5915 6.38978C11.6243 6.5124 11.7045 6.61696 11.8144 6.68049C11.9243 6.74401 12.0549 6.76129 12.1775 6.72852C12.3001 6.69576 12.4047 6.61563 12.4683 6.50576C12.5319 6.3959 12.5492 6.26528 12.5165 6.14264C12.3201 5.41216 11.9351 4.74612 11.4003 4.21125C10.8654 3.67638 10.1994 3.29145 9.46888 3.09504C9.34621 3.06227 9.21556 3.07956 9.10565 3.14312C8.99574 3.20668 8.91558 3.3113 8.88281 3.43396C8.85003 3.55663 8.86733 3.68728 8.93089 3.79719C8.99445 3.9071 9.09907 3.98726 9.22173 4.02003ZM15.6035 11.848C15.4698 12.8875 14.9623 13.8427 14.1757 14.5353C13.3891 15.2279 12.3773 15.6105 11.3293 15.6115C5.08232 15.6115 0 10.5292 0 4.28221C0.0010609 3.23419 0.383612 2.22239 1.07619 1.43582C1.76877 0.649255 2.72401 0.141716 3.76347 0.00801262C4.00344 -0.0208537 4.2463 0.0287336 4.45574 0.14936C4.66518 0.269985 4.82995 0.455168 4.92541 0.677215L6.52833 4.41732C6.6011 4.58658 6.63077 4.77125 6.6147 4.95479C6.59863 5.13834 6.53731 5.31503 6.43623 5.46908L5.10897 7.4971C5.09397 7.51891 5.08486 7.54424 5.08252 7.57061C5.08019 7.59698 5.08471 7.62351 5.09565 7.64763V7.64771C5.71153 8.90408 6.73021 9.91816 7.98937 10.5283C8.01362 10.5392 8.04029 10.5436 8.06674 10.541C8.0932 10.5385 8.11854 10.5291 8.14029 10.5138L10.1377 9.18191C10.2922 9.07851 10.4701 9.01543 10.6552 8.99843C10.8403 8.98144 11.0267 9.01106 11.1974 9.08459L14.9342 10.6861C15.1563 10.7815 15.3415 10.9463 15.4622 11.1557C15.5828 11.3652 15.6324 11.6081 15.6035 11.848H15.6035ZM14.6536 11.7281C14.6571 11.6943 14.6497 11.6602 14.6322 11.631C14.6148 11.6018 14.5885 11.579 14.557 11.5661L10.8203 9.96455C10.7959 9.95412 10.7692 9.94993 10.7428 9.95236C10.7163 9.9548 10.6909 9.96378 10.6688 9.9785L8.6715 11.3104C8.51105 11.4178 8.32546 11.4816 8.13292 11.4957C7.94037 11.5097 7.74748 11.4735 7.57315 11.3905C6.12077 10.6867 4.94575 9.51699 4.23532 8.06782C4.15202 7.89452 4.11492 7.70264 4.12763 7.51078C4.14034 7.31892 4.20242 7.13361 4.30786 6.97281L5.63513 4.94472C5.64958 4.92269 5.65834 4.89743 5.66064 4.87119C5.66294 4.84494 5.6587 4.81854 5.64829 4.79434L4.04545 1.0544C4.03355 1.02591 4.01361 1.00151 3.98806 0.984175C3.96252 0.966837 3.93248 0.957316 3.90162 0.956773C3.89555 0.956777 3.88948 0.957167 3.88346 0.957941C3.07515 1.06204 2.33238 1.45684 1.7939 2.0686C1.25543 2.68036 0.958079 3.46723 0.957406 4.28221C0.960505 7.03206 2.05425 9.66839 3.99869 11.6128C5.94312 13.5573 8.57946 14.651 11.3293 14.6541C12.1443 14.6534 12.9312 14.3561 13.5429 13.8176C14.1547 13.2791 14.5495 12.5364 14.6536 11.7281V11.7281Z" fill="white"/>
</svg>
