<svg width="16" height="20" viewBox="0 0 16 20" fill="none" xmlns="http://www.w3.org/2000/svg">
<path d="M14.592 0H3.05413C2.2444 0.000912098 1.4681 0.322978 0.895541 0.895541C0.322978 1.4681 0.000912098 2.2444 0 3.05413V17.9854C1.34989e-05 18.2554 0.107276 18.5144 0.298193 18.7053C0.48911 18.8962 0.748046 19.0035 1.01804 19.0035H13.2346C13.5046 19.0035 13.7635 18.8962 13.9544 18.7053C14.1453 18.5144 14.2526 18.2554 14.2526 17.9854C14.2526 17.7154 14.1453 17.4565 13.9544 17.2656C13.7635 17.0746 13.5046 16.9674 13.2346 16.9674H2.0703C2.149 16.5844 2.35733 16.2403 2.66018 15.993C2.96302 15.7458 3.34186 15.6105 3.73283 15.61H14.592C14.862 15.61 15.1209 15.5027 15.3118 15.3118C15.5027 15.1209 15.61 14.862 15.61 14.592V1.01804C15.61 0.748046 15.5027 0.48911 15.3118 0.298193C15.1209 0.107276 14.862 1.34989e-05 14.592 0V0ZM7.1263 2.03609H10.5198V7.12664L9.43314 6.31182C9.25689 6.1797 9.04255 6.10829 8.82228 6.1083C8.60201 6.10832 8.38768 6.17976 8.21145 6.3119L7.12631 7.12597L7.1263 2.03609ZM13.5739 13.5739H3.73283C3.14283 13.5732 2.56116 13.7132 2.03609 13.9823V3.05413C2.03638 2.78422 2.14373 2.52545 2.33459 2.33459C2.52545 2.14373 2.78422 2.03638 3.05413 2.03609H5.09022V9.16239C5.09022 9.35146 5.14288 9.53679 5.24229 9.69762C5.3417 9.85845 5.48392 9.98842 5.65304 10.073C5.82215 10.1575 6.01147 10.1933 6.19977 10.1763C6.38808 10.1593 6.56793 10.0902 6.71919 9.97679L8.82255 8.39886L10.9271 9.97688C11.0783 10.0903 11.2582 10.1593 11.4465 10.1763C11.6347 10.1933 11.824 10.1575 11.9931 10.0729C12.1622 9.98836 12.3044 9.85839 12.4038 9.69757C12.5032 9.53676 12.5559 9.35144 12.5559 9.16239V2.03609H13.5739V13.5739Z" fill="black"/>
</svg>
